PathFileType	4	(X/Y/Z)	E:\Qualisys_Data\Carbon_Farble_Plate\Data\Amateur_Runner\S14\T2\S14T2V24_c3d.trc
DataRate	CameraRate	NumFrames	NumMarkers	Units	OrigDataRate	OrigDataStartFrame	OrigNumFrames
200.000000	200.000000	5	39	mm	200.000000	157	315
Frame#	Time	LSHO			RSHO			LICST			RICST			LASIS			LHEEL			RASIS			LTROC			RTROC			SACR			LTH1			LSK4			LTH2			LTH3			RHM5			LSK2			LTH4			RTH1			LTOE			RTH2			RTH3			RTH4			LLEP			RLEP			LSK1			LSK3			RSK1			LHM5			RSK2			LFT1			RSK3			RSK4			LLME			RLME			RTOE			RHEEL			RFT1			RFT2			LFT2			
		X1	Y1	Z1	X2	Y2	Z2	X3	Y3	Z3	X4	Y4	Z4	X5	Y5	Z5	X6	Y6	Z6	X7	Y7	Z7	X8	Y8	Z8	X9	Y9	Z9	X10	Y10	Z10	X11	Y11	Z11	X12	Y12	Z12	X13	Y13	Z13	X14	Y14	Z14	X15	Y15	Z15	X16	Y16	Z16	X17	Y17	Z17	X18	Y18	Z18	X19	Y19	Z19	X20	Y20	Z20	X21	Y21	Z21	X22	Y22	Z22	X23	Y23	Z23	X24	Y24	Z24	X25	Y25	Z25	X26	Y26	Z26	X27	Y27	Z27	X28	Y28	Z28	X29	Y29	Z29	X30	Y30	Z30	X31	Y31	Z31	X32	Y32	Z32	X33	Y33	Z33	X34	Y34	Z34	X35	Y35	Z35	X36	Y36	Z36	X37	Y37	Z37	X38	Y38	Z38	X39	Y39	Z39	

158	0.785	216.9467468261719	1441.97314453125	-482.27490234375	143.0044708251953	1448.065307617188	-200.5106201171875	149.6941375732422	989.13623046875	-477.7528381347656	156.6483764648438	993.7291259765624	-203.5898284912109	182.6244506835938	934.064697265625	-454.9280090332031	-472.91455078125	490.673095703125	-327.0719604492188	183.3735046386719	952.2587280273438	-225.1980438232422	30.94486427307129	893.719970703125	-502.2515258789062	57.75684356689453	874.4004516601562	-165.1601104736328	14.13519191741943	999.4256591796876	-350.0337829589844	6.212010860443115	662.1220703125	-495.7310791015625	-306.8367309570312	525.8997192382812	-425.5736694335938	-63.00749206542969	693.0260009765625	-470.0225524902344	-25.40098190307617	569.1932983398438	-476.14501953125	513.0160522460938	132.5554351806641	-178.814453125	-214.6870422363281	551.2383422851562	-453.7167358398438	-95.91436767578124	602.0462036132812	-452.5469970703125	258.17578125	702.72509765625	-171.3899230957031	-528.3837890625	241.8420104980469	-373.4129943847656	188.1777191162109	668.8969116210938	-153.9935607910156	300.6061096191406	615.8668212890625	-198.3692169189453	228.0726165771484	578.0313110351562	-177.0601501464844	-105.478271484375	534.160400390625	-464.7185974121094	282.9057922363281	529.05322265625	-187.8987884521484	-194.0811004638672	471.4140625	-458.7447509765625	-290.1613159179688	447.5022277832031	-437.4360961914062	332.3936767578125	421.4226684570312	-182.5445861816406	-550.2832641601562	319.3045959472656	-422.9332580566406	250.9171295166016	396.3631591796875	-190.3222961425781	-494.7880249023438	480.4833374023438	-299.0677185058594	357.5816040039062	321.6296081542969	-194.1687469482422	280.9101867675781	305.105224609375	-201.1335906982422	-462.3414611816406	444.7025756835938	-398.0908813476562	372.8078308105469	140.8531341552734	-216.8733215332031	577.1035766601562	193.1024322509766	-226.8958129882812	339.5710754394531	91.37940979003906	-276.2644653320312	369.375	76.39118194580078	-305.6798706054688	352.6019897460938	63.11921310424805	-253.6054382324219	-503.9534301757812	498.2681884765625	-348.4153137207031
159	0.79	239.1539764404297	1439.164306640625	-481.3285827636719	165.2259063720703	1444.976928710938	-199.3243560791016	172.1968536376953	986.4224243164062	-477.6478881835938	178.0089263916016	991.364990234375	-203.3834686279297	205.4060974121094	931.811279296875	-454.6621704101562	-445.8119506835938	499.0234375	-327.2605590820312	205.1741180419922	950.0628662109376	-224.9468231201172	54.11713790893555	890.2422485351562	-503.3066711425781	79.36642456054688	870.8208618164062	-165.6568450927734	36.20169448852539	995.6505737304688	-350.2393493652344	32.05326080322266	657.6722412109375	-496.1768493652344	-279.1063842773438	526.9335327148438	-426.6837463378906	-37.50893020629883	687.9066162109375	-470.4151611328125	2.139291286468506	564.4741821289062	-477.24462890625	533.1102294921875	129.3465270996094	-179.6139221191406	-186.222412109375	549.3583984375	-455.145751953125	-69.44685363769531	596.4165649414062	-453.2827453613281	278.167236328125	699.820556640625	-170.4282073974609	-507.9239196777344	250.8197021484375	-371.63720703125	207.8125457763672	665.351318359375	-154.1638336181641	321.0789794921875	613.38818359375	-198.3158264160156	248.2769622802734	574.6721801757812	-177.7984008789062	-77.49945831298828	528.6903076171875	-465.2979736328125	303.669189453125	525.9485473632812	-188.6591491699219	-167.550048828125	468.4800109863281	-459.5518188476562	-264.65673828125	447.7431335449219	-437.1071166992188	353.5276184082031	418.2301330566406	-183.3579254150391	-527.6514892578125	328.9118041992188	-421.5882568359375	271.76171875	392.8076782226562	-191.63818359375	-467.9072875976562	489.2096862792969	-299.1170349121094	378.624755859375	318.2743530273438	-195.2016754150391	302.1448059082031	301.5328369140625	-202.4176788330078	-439.490234375	451.7488403320312	-397.8893432617188	394.4530639648438	137.2415161132812	-217.9834289550781	597.7077026367188	190.3978576660156	-226.7918243408203	361.0107116699219	87.61917114257812	-278.473388671875	391.2115783691406	72.93122863769531	-307.0829772949219	373.9040222167969	60.01288223266602	-254.84912109375	-479.8214111328125	505.0821228027344	-351.9104309082031
160	0.795	261.6119995117188	1436.498046875	-480.3443908691406	187.5469818115234	1441.002075195312	-198.3826293945312	194.5933532714844	983.7930908203124	-478.0322570800781	199.35400390625	988.686767578125	-202.9544982910156	228.0844268798828	929.0610961914062	-454.2453002929688	-417.7831115722656	506.5901489257812	-327.0817260742188	226.8535003662109	947.4110107421876	-224.4698638916016	77.45655059814453	886.4171752929688	-504.3019409179688	100.7264785766602	867.1634521484375	-165.9796905517578	58.18014907836914	992.0812377929688	-350.9214477539062	57.89363098144531	653.074462890625	-496.4705200195312	-250.7142028808594	527.8329467773438	-428.2257385253906	-11.9827356338501	682.3914794921875	-471.0680541992188	29.35118103027344	559.1902465820312	-477.4454650878906	552.271484375	126.2649841308594	-179.7772521972656	-156.8331909179688	546.6422729492188	-456.8930969238281	-42.37968826293945	590.022705078125	-453.628173828125	298.77734375	697.0565795898438	-169.0935363769531	-486.064697265625	259.9805603027344	-370.4426879882812	228.2849731445312	662.193115234375	-154.791259765625	342.265869140625	610.9699096679688	-198.6654357910156	268.7122192382812	572.1140747070312	-178.8879241943359	-49.26627349853516	523.116943359375	-466.6228637695312	324.6688842773438	523.3261108398438	-188.8282928466797	-140.8352661132812	465.6818542480469	-459.6496276855469	-238.5090026855469	447.56787109375	-437.0039672851562	374.1296691894531	414.4425964355469	-184.3565521240234	-503.9351196289062	337.8827209472656	-420.465087890625	292.7678833007812	389.2103881835938	-192.4485321044922	-440.7591552734375	497.2144775390625	-300.5324096679688	399.4521484375	314.3991088867188	-196.7565460205078	322.751220703125	298.4420776367188	-203.3305206298828	-412.6937561035156	458.5154418945312	-397.6174011230469	413.8782958984375	133.5474548339844	-219.8005828857422	617.2006225585938	187.0112915039062	-226.3853912353516	381.1115417480469	84.20348358154297	-280.2750244140625	411.3639526367188	69.36215209960938	-309.0438537597656	393.9629211425781	55.82572555541992	-257.5521850585938	-450.8033447265625	514.5684814453125	-350.4560546875
161	0.8	283.8582458496094	1433.09228515625	-479.6362915039062	210.1979217529297	1437.09521484375	-197.1932067871094	216.8526763916016	980.2083129882812	-477.7489013671875	221.1771240234375	985.8186645507812	-202.6924743652344	250.5314483642578	926.1793212890624	-454.0422973632812	-385.5246887207031	512.61328125	-326.1349487304688	248.4743347167969	944.7439575195312	-224.2880096435547	100.586540222168	882.1793823242188	-505.5403442382812	121.6355285644531	863.390380859375	-166.9191741943359	79.72660827636719	988.1512451171876	-351.3114929199219	84.79187774658203	647.9860229492188	-496.978759765625	-221.7959289550781	527.89892578125	-429.30224609375	13.55832290649414	676.2706298828125	-471.5367431640625	56.92153549194336	553.5654296875	-477.7565612792969	570.2802734375	121.7373046875	-180.891845703125	-127.6872863769531	543.6343383789062	-458.6862182617188	-15.60665607452393	583.714111328125	-454.8621215820312	320.4457092285156	694.1508178710938	-167.9256439208984	-463.1433715820312	268.7467651367188	-369.4572448730469	249.4559173583984	659.5270385742188	-156.0252838134766	363.7153625488281	608.4171142578125	-198.394775390625	290.3035278320312	569.47216796875	-180.3969879150391	-20.84552383422852	516.9359741210938	-467.6918334960938	345.7816772460938	520.8258056640625	-189.2625274658203	-113.921257019043	462.2357788085938	-459.875	-211.8523712158203	447.7037658691406	-436.0564270019531	394.7723693847656	410.2243347167969	-185.263671875	-478.9874877929688	346.6501159667969	-420.0828247070312	313.3128967285156	385.830322265625	-193.4708709716797	-411.7942504882812	505.4566650390625	-300.41015625	419.4042053222656	310.3984375	-197.9870758056641	342.4217529296875	294.3674926757812	-205.0498199462891	-385.0389404296875	464.8427124023438	-397.2066650390625	432.8004760742188	129.1900024414062	-221.4012756347656	635.6599731445312	182.5409393310547	-226.7354736328125	399.7186279296875	80.06597900390625	-282.6223754882812	430.0895385742188	65.1880874633789	-310.6650390625	412.138671875	51.77976989746094	-259.4607543945312	-422.1878356933594	522.1713256835938	-351.582763671875
162	0.805	305.9996643066406	1429.814208984375	-478.5977172851562	232.5017242431641	1432.428344726562	-195.7858276367188	238.9499359130859	976.6820068359376	-477.8578796386719	242.2663726806641	982.7537841796876	-202.4175720214844	272.9495239257812	923.0802001953124	-454.010009765625	-355.8869323730469	519.0177001953125	-326.1945495605469	270.0753784179688	941.973876953125	-223.6992797851562	123.6628341674805	877.5760498046875	-506.0924987792969	142.4804077148438	859.6912841796875	-167.3037109375	101.6155776977539	983.9522705078124	-352.2687683105469	110.8844299316406	642.8671264648438	-497.4690246582031	-192.2095794677734	527.7626953125	-431.0906982421875	39.40301513671875	669.763916015625	-471.6803588867188	84.62452697753906	547.8905029296875	-478.0935363769531	587.2039794921875	116.4448013305664	-182.0358581542969	-97.42298889160156	540.4961547851562	-460.1447143554688	11.69173240661621	576.7518920898438	-455.0313110351562	342.4427185058594	691.3864135742188	-166.4769744873047	-439.6927490234375	276.8763732910156	-368.3576354980469	270.642333984375	656.7595825195312	-157.8514862060547	385.6726684570312	606.0819091796875	-198.0762939453125	311.4028930664062	567.0667724609375	-183.0582122802734	7.345174312591553	512.37060546875	-469.2584533691406	367.2637939453125	518.5262451171875	-189.8533782958984	-86.08196258544922	458.3349609375	-459.9598693847656	-184.5807495117188	447.0108032226562	-435.353271484375	415.4524230957031	406.1966857910156	-186.1835479736328	-453.4165649414062	354.5839233398438	-419.3574523925781	333.6724548339844	382.2195434570312	-194.4986267089844	-382.4659729003906	512.4700927734375	-300.6024169921875	438.7335510253906	305.93994140625	-199.1331329345703	362.1400146484375	290.4902954101562	-205.9771118164062	-356.8099670410156	470.2057189941406	-397.0115661621094	449.8208618164062	125.5396881103516	-222.9193725585938	653.0294189453125	176.9629516601562	-227.6013641357422	416.7672424316406	75.74188232421875	-284.289794921875	447.4930114746094	60.78083038330078	-312.3973999023438	428.8924255371094	47.5219612121582	-261.0200805664062	-392.5318603515625	529.352294921875	-351.7475280761719
